<svg id="visual" viewBox="0 0 1600 1000" width="1600" height="1000" xmlns="http://www.w3.org/2000/svg" xmlns:xlink="http://www.w3.org/1999/xlink" version="1.1"><rect width="1600" height="1000" fill="#010408"></rect><g><g transform="translate(918 576)"><path d="M0 -69.1L54 -43.1L67.4 15.4L30 62.3L-30 62.3L-67.4 15.4L-54 -43.1Z" fill="none" stroke="#FFFFFF" stroke-width="2"></path></g><g transform="translate(44 319)"><path d="M0 -31L24.2 -19.3L30.2 6.9L13.5 27.9L-13.5 27.9L-30.2 6.9L-24.2 -19.3Z" fill="none" stroke="#FFFFFF" stroke-width="2"></path></g><g transform="translate(1585 727)"><path d="M0 -53L41.4 -33L51.7 11.8L23 47.8L-23 47.8L-51.7 11.8L-41.4 -33Z" stroke="#FFFFFF" fill="none" stroke-width="2"></path></g><g transform="translate(371 542)"><path d="M0 -31L24.2 -19.3L30.2 6.9L13.5 27.9L-13.5 27.9L-30.2 6.9L-24.2 -19.3Z" stroke="#FFFFFF" fill="none" stroke-width="2"></path></g><g transform="translate(1540 935)"><path d="M0 -34L26.6 -21.2L33.1 7.6L14.8 30.6L-14.8 30.6L-33.1 7.6L-26.6 -21.2Z" stroke="#FFFFFF" fill="none" stroke-width="2"></path></g></g></svg>